<?xml version="1.0" encoding="UTF-8" standalone="no"?>
<svg width="170px" height="34px" viewBox="0 0 170 34" version="1.1" xmlns="http://www.w3.org/2000/svg" xmlns:xlink="http://www.w3.org/1999/xlink" xmlns:sketch="http://www.bohemiancoding.com/sketch/ns">
    <!-- Generator: Sketch 3.0.1 (7597) - http://www.bohemiancoding.com/sketch -->
    <title>buttons-light</title>
    <description>Created with Sketch.</description>
    <defs></defs>
    <g id="Page-1" stroke="none" stroke-width="1" fill="none" fill-rule="evenodd" sketch:type="MSPage">
        <g id="buttons-light" sketch:type="MSArtboardGroup" fill="#FFFFFF">
            <path d="M136,0 L136,34 L170,34 L170,0 L136,0 Z M153.585786,17 L149.464466,12.8786797 L150.87868,11.4644661 L156.414214,17 L153.585786,17 L153.585786,17 Z M153.585786,17 L149.464466,21.1213203 L150.87868,22.5355339 L156.414214,17 L153.585786,17 L153.585786,17 Z" id="Scroll" sketch:type="MSShapeGroup" transform="translate(153.000000, 17.000000) rotate(90.000000) translate(-153.000000, -17.000000) "></path>
            <path d="M102,0 L102,34 L136,34 L136,0 L102,0 Z M113,16 L113,18 L115,18 L115,16 L113,16 Z M118,16 L118,18 L120,18 L120,16 L118,16 Z M123,16 L123,18 L125,18 L125,16 L123,16 Z" id="More" sketch:type="MSShapeGroup"></path>
            <path d="M34,0 L34,34 L68,34 L68,0 L34,0 Z M43,11 L43,13 L59,13 L59,11 L43,11 Z M43,16 L43,18 L59,18 L59,16 L43,16 Z M43,21 L43,23 L59,23 L59,21 L43,21 Z" id="Open" sketch:type="MSShapeGroup"></path>
            <path d="M85,18.4142136 L80.0502525,23.363961 L78.636039,21.9497475 L83.5857864,17 L78.636039,12.0502525 L80.0502525,10.636039 L85,15.5857864 L89.9497475,10.636039 L91.363961,12.0502525 L86.4142136,17 L91.363961,21.9497475 L89.9497475,23.363961 L85,18.4142136 Z M68,0 L68,34 L102,34 L102,0 L68,0 Z" id="Close" sketch:type="MSShapeGroup"></path>
            <path d="M14.8838423,31.9638802 C14.8162126,31.8831773 14.479079,31.0431268 14.1346568,30.0971008 C13.7902345,29.1510748 13.4637704,28.3337436 13.4091804,28.2808091 C13.3545912,28.2278738 12.9253577,28.0976387 12.4553282,27.9913957 C11.3987917,27.7525835 10.685384,27.489233 9.7443754,26.9906644 C6.73784626,25.3977347 4.593115,22.5579349 3.92183387,19.2811433 L3.76743554,18.5274633 L3.33553855,18.367597 C3.09799486,18.2796716 2.28442454,17.9826125 1.52760373,17.707466 C0.0360286056,17.1651962 -0.139635524,17.066038 0.0752861048,16.8876691 C0.14894799,16.8265352 1.00505336,16.4830831 1.97774268,16.1244429 L3.74626778,15.4723704 L3.94742731,14.5715094 C4.19700187,13.4538278 4.47906383,12.6781802 4.97741141,11.7391419 C6.57572923,8.72742768 9.41051852,6.58795633 12.6940054,5.91527594 C13.5768377,5.7344121 13.3979597,5.99106724 14.2119058,3.73737614 C14.8007967,2.10682722 14.9322479,1.86431517 15.1235068,2.05557325 C15.1876929,2.11976026 15.5172256,2.94046018 15.8558006,3.87935143 C16.1943756,4.81824268 16.5147335,5.62973691 16.5677058,5.68267136 C16.6206789,5.73560668 17.0485897,5.86584178 17.5186193,5.9720848 C18.5751558,6.21089702 19.2885635,6.47424744 20.2295721,6.97281605 C23.236121,8.565757 25.3808316,11.4055422 26.0521239,14.6823879 L26.2065334,15.4361195 L27.0684311,15.7673138 C27.5424752,15.9494702 28.3560413,16.2472319 28.8763556,16.4290056 C29.9334381,16.7983015 30.1167057,16.9147083 29.9319331,17.0994809 C29.8671759,17.1642381 29.0073784,17.5117075 28.0212719,17.8716351 C27.0351645,18.2315619 26.2214101,18.5365641 26.2129268,18.5494163 C26.204447,18.5622685 26.1295166,18.901743 26.046422,19.3038041 C25.8323535,20.3395925 25.526339,21.2003248 25.0413192,22.1308747 C23.446758,25.1901705 20.6438833,27.3373159 17.3251002,28.041892 C16.863922,28.1398005 16.583028,28.2443415 16.5337546,28.3364097 C16.4917416,28.4149126 16.1775466,29.2495441 15.8355444,30.1911461 C15.4935423,31.1327481 15.167165,31.9498291 15.1102633,32.0068813 C15.0295268,32.0878293 14.9797986,32.0783854 14.8838423,31.9638802 L14.8838423,31.9638802 Z M17.5985704,26.2334619 C20.815936,25.3872304 23.3639444,22.8415088 24.2394201,19.5985704 C24.4494147,18.8207057 24.4710494,18.5999909 24.4710494,17.2355247 C24.4710494,15.8710585 24.4494147,15.6503438 24.2394201,14.872479 C23.3645353,11.6317285 20.8393209,9.10651416 17.5985704,8.23162931 C16.8207057,8.02163475 16.5999909,8 15.2355247,8 C13.8710585,8 13.6503438,8.02163475 12.872479,8.23162931 C9.63172848,9.10651416 7.10651416,11.6317285 6.23162931,14.872479 C6.02163475,15.6503438 6,15.8710585 6,17.2355247 C6,18.5999909 6.02163475,18.8207057 6.23162931,19.5985704 C7.16000333,23.0374541 9.85729634,25.5908591 13.3624835,26.3490275 C14.5248631,26.6004486 16.3975267,26.5493606 17.5985704,26.2334619 L17.5985704,26.2334619 Z M7.03686448,16.4952337 C7.22631081,14.4863203 7.9992094,12.841273 9.42217468,11.4183069 C10.8284476,10.012034 12.4917509,9.22310779 14.4386891,9.03890942 C16.9282095,8.80337762 19.2507809,9.64219839 21.0268902,11.4183069 C22.4498555,12.841273 23.2227541,14.4863203 23.4122004,16.4952337 C23.5385431,17.8349798 23.3455114,18.934259 22.8757667,19.5501255 C22.7610289,19.700555 22.6109706,19.8124938 22.5423037,19.7988786 C22.4736375,19.7852626 21.7377082,18.7190859 20.9069069,17.429596 C20.0761048,16.140106 19.3605269,15.0733847 19.3167339,15.0591048 C19.2729408,15.0448248 19.0685077,15.3264502 18.8624388,15.6849395 L18.4877678,16.3367385 L18.6116219,16.9011695 C18.741785,17.4943484 18.7112003,17.6363758 18.4841427,17.4931512 C18.4086698,17.4455442 17.6352621,16.3630602 16.7654602,15.0876313 C15.8956575,13.8122033 15.1475234,12.768874 15.1029392,12.7691228 C15.058355,12.769366 14.247739,13.9261021 13.3015701,15.3396342 L11.5812631,17.9096932 L11.702896,18.4302403 C11.7862255,18.786862 11.7982762,18.9770403 11.7411631,19.0341535 C11.6210257,19.1542909 11.5458194,19.0603828 10.7606343,17.8097873 C10.3786556,17.2013946 10.0291123,16.6912801 9.98387065,16.6761993 C9.93862904,16.6611193 9.49058547,17.3231897 8.98821809,18.1474679 C8.48585071,18.9717462 8.02408008,19.6882684 7.96206104,19.7397397 C7.87289508,19.8137405 7.79980943,19.7803445 7.61279739,19.5801485 C7.1273412,19.0604655 6.90650435,17.8775812 7.03686448,16.4952337 Z" id="Logo" sketch:type="MSShapeGroup"></path>
        </g>
    </g>
</svg>
